<?xml version="1.0" standalone="no"?>
<!DOCTYPE svg PUBLIC "-//W3C//DTD SVG 20010904//EN"
 "http://www.w3.org/TR/2001/REC-SVG-20010904/DTD/svg10.dtd">
<svg version="1.0" xmlns="http://www.w3.org/2000/svg"
 width="181.000000pt" height="181.000000pt" viewBox="0 0 181.000000 181.000000"
 preserveAspectRatio="xMidYMid meet">
<metadata>
Created by potrace 1.11, written by Peter Selinger 2001-2013
</metadata>
<g transform="translate(0.000000,181.000000) scale(0.100000,-0.100000)"
fill="#000000" stroke="none">
<path d="M813 1668 c-132 -15 -175 -26 -263 -69 -168 -81 -286 -232 -341 -435
-31 -114 -31 -322 1 -449 37 -151 119 -288 220 -367 126 -99 282 -145 503
-146 245 -2 421 50 642 189 l60 38 0 303 0 303 -337 3 -338 2 -4 -22 c-3 -13
-4 -79 -3 -148 l2 -125 146 -3 147 -3 0 -58 c0 -67 -2 -72 -43 -94 -133 -72
-266 -89 -377 -47 -98 37 -149 99 -180 222 -28 111 -22 313 11 399 47 122 140
190 269 195 116 5 204 -37 238 -116 20 -46 23 -46 139 -26 130 23 143 26 178
31 144 23 142 21 105 108 -32 77 -101 170 -157 211 -45 34 -161 92 -161 81 0
-2 -11 0 -25 5 -54 21 -316 32 -432 18z"/>
</g>
</svg>
